{"glyphs":{"0":{"ha":1653,"x_min":42,"x_max":1431,"o":"m 1431 435 q 1226 -51 1431 144 q 736 -256 1024 -256 q 244 -51 449 -256 q 42 435 42 151 q 244 925 42 722 q 736 1129 449 1129 q 1226 925 1024 1129 q 1431 435 1431 722 m 1083 435 q 982 681 1083 579 q 736 782 881 782 q 490 681 592 782 q 389 435 389 579 q 490 189 389 290 q 736 88 592 88 q 982 189 881 88 q 1083 435 1083 290 z "},"1":{"ha":1653,"x_min":42,"x_max":1431,"o":"m 1431 608 l 1431 261 l 42 261 l 42 608 l 1431 608 z "},"2":{"ha":1653,"x_min":42,"x_max":1431,"o":"m 1431 1129 l 1431 -256 l 996 -256 q 885 -239 949 -256 q 676 -125 757 -206 q 563 174 563 -11 l 563 694 q 550 746 563 725 q 475 782 526 782 q 403 746 426 782 q 389 694 389 724 l 389 -256 l 42 -256 l 42 694 q 58 810 42 744 q 172 1017 92 936 q 475 1129 286 1129 q 778 1018 663 1129 q 892 810 858 942 q 910 694 910 750 l 910 175 q 922 124 910 144 q 996 88 946 88 l 1083 88 l 1083 1129 l 1431 1129 z "},"3":{"ha":1653,"x_min":42,"x_max":1431,"o":"m 1431 694 l 1431 -256 l 1083 -256 l 1083 694 q 1071 746 1083 725 q 996 782 1047 782 q 924 746 947 782 q 910 694 910 724 l 910 392 l 563 392 l 563 694 q 550 746 563 725 q 475 782 526 782 q 403 746 426 782 q 389 694 389 724 l 389 -256 l 42 -256 l 42 694 q 58 810 42 744 q 172 1017 92 936 q 475 1129 286 1129 q 736 1053 635 1129 q 996 1129 838 1129 q 1299 1018 1183 1129 q 1413 810 1379 942 q 1431 694 1431 750 z "},"4":{"ha":1653,"x_min":42,"x_max":1431,"o":"m 1431 1129 l 1431 782 l 910 782 l 910 174 q 799 -125 910 -10 q 590 -239 718 -206 q 475 -256 525 -256 l 42 -256 l 42 88 l 475 88 q 549 122 526 88 q 563 174 563 144 l 563 782 l 42 782 l 42 1129 l 1431 1129 z "},"5":{"ha":1653,"x_min":42,"x_max":1431,"o":"m 1431 694 l 1431 -256 l 1083 -256 l 1083 694 q 1071 746 1083 725 q 996 782 1047 782 q 924 746 947 782 q 910 694 910 724 l 910 174 q 799 -125 910 -10 q 590 -239 718 -206 q 475 -256 525 -256 l 42 -256 l 42 1129 l 389 1129 l 389 88 l 475 88 q 549 122 526 88 q 563 174 563 144 l 563 694 q 579 810 563 744 q 693 1017 613 936 q 996 1129 807 1129 q 1299 1018 1183 1129 q 1413 810 1379 942 q 1431 694 1431 750 z "},"6":{"ha":1653,"x_min":42,"x_max":1431,"o":"m 1431 694 l 1431 174 q 1319 -125 1431 -10 q 1111 -239 1239 -206 q 996 -256 1046 -256 l 475 -256 q 172 -144 283 -256 q 58 60 92 -64 q 50 117 54 88 q 42 174 46 146 l 42 1129 l 389 1129 l 389 174 q 424 101 389 122 q 475 88 446 88 l 563 88 l 563 694 q 579 810 563 744 q 693 1017 613 936 q 996 1129 807 1129 q 1299 1018 1183 1129 q 1413 810 1379 942 q 1431 694 1431 750 m 1083 694 q 1071 746 1083 725 q 996 782 1047 782 q 924 746 947 782 q 910 694 910 724 l 910 88 l 996 88 q 1047 100 1026 88 q 1083 174 1083 124 l 1083 694 z "},"7":{"ha":1653,"x_min":42,"x_max":1431,"o":"m 1431 1129 l 1431 782 l 476 782 q 425 769 446 782 q 389 694 389 746 l 389 -256 l 42 -256 l 42 694 q 58 810 42 744 q 172 1017 92 936 q 475 1129 286 1129 l 1431 1129 z "},"8":{"ha":1653,"x_min":42,"x_max":1431,"o":"m 1431 694 l 1431 174 q 1422 118 1426 146 q 1414 63 1418 90 q 1300 -142 1381 -61 q 996 -256 1186 -256 q 736 -179 838 -256 q 475 -256 635 -256 q 172 -144 283 -256 q 58 60 92 -64 q 50 117 54 88 q 42 174 46 146 l 42 694 q 58 810 42 744 q 172 1017 92 936 q 475 1129 286 1129 q 736 1053 635 1129 q 996 1129 838 1129 q 1299 1018 1183 1129 q 1413 810 1379 942 q 1431 694 1431 750 m 563 694 q 550 746 563 725 q 475 782 526 782 q 403 746 426 782 q 389 694 389 724 l 389 175 q 401 124 389 144 q 475 88 425 88 q 549 122 526 88 q 563 174 563 144 l 563 694 m 1083 694 q 1071 746 1083 725 q 996 782 1047 782 q 924 746 947 782 q 910 694 910 724 l 910 175 q 922 124 910 144 q 996 88 946 88 q 1069 122 1047 88 q 1083 174 1083 144 l 1083 694 z "},"9":{"ha":1653,"x_min":42,"x_max":1431,"o":"m 1431 1129 l 1431 782 l 910 782 l 910 174 q 901 118 906 146 q 893 63 897 90 q 779 -142 860 -61 q 475 -256 665 -256 q 172 -144 283 -256 q 58 60 92 -64 q 50 117 54 88 q 42 174 46 146 l 42 694 q 153 997 42 886 q 361 1111 229 1078 q 475 1129 421 1129 l 1431 1129 m 563 174 l 563 782 l 475 782 q 403 746 426 782 q 389 694 389 724 l 389 175 q 401 124 389 144 q 475 88 425 88 q 549 122 526 88 q 563 174 563 144 z "},"":{"ha":0,"x_min":0,"x_max":0,"o":""},"":{"ha":694,"x_min":0,"x_max":0,"o":""}," ":{"ha":1104,"x_min":0,"x_max":0,"o":""},"!":{"ha":1653,"x_min":42,"x_max":1431,"o":"m 910 608 l 910 261 l 42 261 l 42 608 l 910 608 m 1431 608 l 1431 261 l 1083 261 l 1083 608 l 1431 608 z "},"\"":{"ha":742,"x_min":42,"x_max":519,"o":"m 519 868 l 519 521 l 42 521 l 42 868 l 519 868 m 519 347 l 519 0 l 42 0 l 42 347 l 519 347 z "},"#":{"ha":1653,"x_min":42,"x_max":1431,"o":"m 1431 868 l 1431 521 l 1169 521 l 1169 347 l 1431 347 l 1431 0 l 1169 0 l 1169 -256 l 822 -256 l 822 0 l 649 0 l 649 -256 l 301 -256 l 301 0 l 42 0 l 42 347 l 301 347 l 301 521 l 42 521 l 42 868 l 301 868 l 301 1129 l 649 1129 l 649 868 l 822 868 l 822 1129 l 1169 1129 l 1169 868 l 1431 868 m 649 521 l 649 347 l 822 347 l 822 521 l 649 521 z "},"$":{"ha":1914,"x_min":42,"x_max":1692,"o":"m 1692 608 l 1692 261 l 1561 261 l 1561 -256 l 1214 -256 l 1214 694 q 1201 746 1214 725 q 1128 782 1178 782 q 1054 746 1078 782 q 1040 694 1040 724 l 1040 174 q 1032 118 1036 146 q 1024 63 1028 90 q 911 -142 990 -62 q 607 -256 797 -256 q 304 -144 415 -256 q 190 60 224 -68 q 181 117 185 88 q 172 174 176 146 l 172 261 l 42 261 l 42 608 l 172 608 l 172 1129 l 519 1129 l 519 175 q 533 124 519 146 q 607 88 557 88 q 679 122 658 88 q 693 174 693 144 l 693 694 q 710 810 693 744 q 824 1017 743 936 q 1128 1129 938 1129 q 1431 1018 1315 1129 q 1544 810 1511 938 q 1561 694 1561 744 l 1561 608 l 1692 608 z "},"%":{"ha":1653,"x_min":42,"x_max":1431,"o":"m 649 44 q 560 -167 649 -78 q 346 -256 471 -256 q 131 -167 219 -256 q 42 44 42 -78 q 131 258 42 169 q 346 347 219 347 q 560 258 471 347 q 649 44 649 169 m 1431 825 q 1340 610 1431 700 q 1126 521 1251 521 q 911 610 1000 521 q 822 825 822 699 q 911 1040 822 951 q 1126 1129 1000 1129 q 1342 1040 1253 1129 q 1431 825 1431 951 m 1169 825 q 1126 868 1169 868 q 1096 856 1108 868 q 1083 825 1083 843 q 1096 794 1083 807 q 1126 782 1108 782 q 1157 794 1144 782 q 1169 825 1169 807 m 389 44 q 376 75 389 63 q 346 88 364 88 q 314 75 326 88 q 301 44 301 63 q 346 0 301 0 q 376 13 364 0 q 389 44 389 25 m 1431 221 l 1431 -157 l 42 649 l 42 1031 l 1431 221 z "},"&":{"ha":1914,"x_min":42,"x_max":1692,"o":"m 1692 608 l 1692 261 l 1561 261 l 1561 174 q 1553 118 1557 146 q 1544 63 1549 90 q 1432 -142 1511 -62 q 1128 -256 1318 -256 q 867 -179 968 -256 q 607 -256 765 -256 q 304 -144 415 -256 q 190 60 224 -68 q 181 117 185 88 q 172 174 176 146 l 172 261 l 42 261 l 42 608 l 172 608 l 172 1129 l 519 1129 l 519 175 q 533 124 519 146 q 607 88 557 88 q 679 122 658 88 q 693 174 693 144 l 693 478 l 1040 478 l 1040 175 q 1054 124 1040 146 q 1128 88 1078 88 q 1200 122 1179 88 q 1214 174 1214 144 l 1214 1129 l 1561 1129 l 1561 608 l 1692 608 z "},"'":{"ha":742,"x_min":42,"x_max":519,"o":"m 519 608 l 519 261 l 42 261 l 42 608 l 519 608 z "},"(":{"ha":1653,"x_min":42,"x_max":1431,"o":"m 1431 739 l 1431 565 q 1319 263 1431 378 q 1111 149 1243 182 q 996 131 1051 131 l 475 131 q 172 243 285 131 q 58 453 92 324 l 42 565 l 42 739 l 389 739 l 389 565 q 424 492 389 514 q 475 478 446 478 l 996 478 q 1069 514 1046 478 q 1083 565 1083 536 l 1083 739 l 1431 739 z "},")":{"ha":1653,"x_min":42,"x_max":1431,"o":"m 1431 304 l 1431 131 l 1083 131 l 1083 304 q 1071 356 1083 335 q 996 392 1047 392 l 476 392 q 425 378 447 392 q 389 304 389 354 l 389 131 l 42 131 l 42 304 l 58 417 q 172 626 92 546 q 475 739 285 739 l 996 739 q 1111 722 1046 739 q 1318 608 1238 689 q 1431 304 1431 493 z "},"*":{"ha":1386,"x_min":42,"x_max":1164,"o":"m 901 435 l 1164 243 l 960 -33 l 699 153 l 597 -153 l 267 -46 l 368 261 l 42 261 l 42 608 l 368 608 l 268 918 l 599 1025 l 699 717 l 961 907 l 1164 626 l 901 435 z "},"+":{"ha":1132,"x_min":42,"x_max":910,"o":"m 910 608 l 910 261 l 650 261 l 650 0 l 303 0 l 303 261 l 42 261 l 42 608 l 303 608 l 303 868 l 650 868 l 650 608 l 910 608 z "},",":{"ha":742,"x_min":42,"x_max":519,"o":"m 519 174 l 519 131 l 172 131 l 172 174 q 136 247 172 224 q 85 261 114 261 l 42 261 l 42 608 l 85 608 q 388 497 272 608 q 501 289 468 421 q 519 174 519 229 z "},"-":{"ha":611,"x_min":42,"x_max":389,"o":"m 389 868 l 389 0 l 42 0 l 42 868 l 389 868 z "},".":{"ha":611,"x_min":42,"x_max":389,"o":"m 389 608 l 389 261 l 42 261 l 42 608 l 389 608 z "},"/":{"ha":1653,"x_min":42,"x_max":1431,"o":"m 1431 221 l 1431 -157 l 42 649 l 42 1031 l 1431 221 z "},":":{"ha":1132,"x_min":42,"x_max":910,"o":"m 389 608 l 389 261 l 42 261 l 42 608 l 389 608 m 910 608 l 910 261 l 563 261 l 563 608 l 910 608 z "},";":{"ha":1263,"x_min":42,"x_max":1040,"o":"m 389 608 l 389 261 l 42 261 l 42 608 l 389 608 m 1040 174 l 1040 131 l 693 131 l 693 174 q 657 247 693 224 q 606 261 635 261 l 563 261 l 563 608 l 606 608 q 908 497 793 608 q 1022 289 989 421 q 1040 174 1040 229 z "},"<":{"ha":1167,"x_min":42,"x_max":944,"o":"m 944 868 l 654 0 l 332 0 l 42 868 l 394 868 l 493 572 l 592 868 l 944 868 z "},"=":{"ha":1132,"x_min":42,"x_max":910,"o":"m 389 868 l 389 0 l 42 0 l 42 868 l 389 868 m 910 868 l 910 0 l 563 0 l 563 868 l 910 868 z "},">":{"ha":1167,"x_min":42,"x_max":944,"o":"m 944 0 l 592 0 l 493 297 l 394 0 l 42 0 l 332 868 l 654 868 l 944 0 z "},"?":{"ha":1653,"x_min":42,"x_max":1431,"o":"m 1431 608 l 1431 261 l 1083 261 l 1083 608 l 1431 608 m 910 694 l 910 261 l 563 261 l 563 694 q 550 746 563 725 q 476 782 526 782 q 403 746 426 782 q 389 694 389 724 l 389 -256 l 42 -256 l 42 694 q 58 810 42 744 q 172 1017 92 936 q 476 1129 286 1129 q 779 1018 664 1129 q 893 810 860 938 q 910 694 910 744 z "},"@":{"ha":1653,"x_min":42,"x_max":1431,"o":"m 563 694 l 563 782 l 475 782 q 403 746 426 782 q 389 694 389 724 l 389 174 q 424 101 389 122 q 475 88 446 88 l 1431 88 l 1431 -256 l 475 -256 q 172 -144 283 -256 q 58 60 92 -64 q 50 117 54 88 q 42 174 46 146 l 42 694 q 153 997 42 886 q 361 1111 229 1078 q 475 1129 421 1129 l 996 1129 q 1299 1018 1183 1129 q 1413 810 1379 942 q 1431 694 1431 750 q 1422 639 1426 667 q 1414 583 1418 611 q 1300 375 1381 456 q 996 261 1186 261 q 693 372 804 261 q 579 581 613 453 q 571 638 575 608 q 563 694 567 667 m 996 782 l 910 782 l 910 694 q 944 622 910 643 q 996 608 967 608 q 1047 621 1026 608 q 1083 694 1083 644 q 1047 768 1083 744 q 996 782 1025 782 z "},"A":{"ha":1653,"x_min":42,"x_max":1431,"o":"m 1431 1129 l 1431 782 l 1169 782 l 1169 88 l 1431 88 l 1431 -256 l 736 -256 q 554 -229 647 -256 q 221 -47 346 -176 q 42 435 42 128 q 219 919 42 738 q 553 1101 347 1047 q 736 1129 671 1129 l 1431 1129 m 736 88 l 822 88 l 822 782 l 736 782 q 496 696 599 782 q 389 435 389 604 q 492 176 389 267 q 736 88 593 88 z "},"B":{"ha":1653,"x_min":42,"x_max":1431,"o":"m 1431 694 l 1431 -256 l 42 -256 l 42 694 q 58 810 42 744 q 172 1017 92 936 q 475 1129 286 1129 q 736 1053 635 1129 q 996 1129 838 1129 q 1299 1018 1183 1129 q 1413 810 1379 942 q 1431 694 1431 750 m 389 694 l 389 88 l 563 88 l 563 694 q 550 746 563 725 q 475 782 526 782 q 403 746 426 782 q 389 694 389 724 m 910 694 l 910 88 l 1083 88 l 1083 694 q 1071 746 1083 725 q 996 782 1047 782 q 924 746 947 782 q 910 694 910 724 z "},"C":{"ha":1653,"x_min":42,"x_max":1431,"o":"m 1431 435 q 1226 -51 1431 144 q 736 -256 1024 -256 q 244 -51 449 -256 q 42 435 42 151 q 199 874 42 679 q 597 1115 356 1068 l 649 1126 l 649 772 l 621 761 q 453 635 519 726 q 389 435 389 546 q 490 189 389 290 q 736 88 592 88 q 982 189 881 88 q 1083 435 1083 290 q 1019 635 1083 546 q 851 761 953 726 l 822 772 l 822 1126 l 875 1115 q 1274 875 1119 1067 q 1431 435 1431 681 z "},"D":{"ha":1653,"x_min":42,"x_max":1431,"o":"m 1431 435 l 1431 -256 l 42 -256 l 42 435 q 68 617 42 524 q 250 950 121 825 q 736 1129 431 1129 q 1221 951 1039 1129 q 1403 618 1349 824 q 1431 435 1431 500 m 1083 435 q 997 675 1083 572 q 736 782 906 782 q 478 678 567 782 q 389 435 389 576 l 389 88 l 1083 88 l 1083 435 z "},"E":{"ha":1653,"x_min":42,"x_max":1431,"o":"m 1431 1129 l 1431 -256 l 42 -256 l 42 1129 l 389 1129 l 389 88 l 563 88 l 563 478 l 910 478 l 910 88 l 1083 88 l 1083 1129 l 1431 1129 z "},"F":{"ha":1653,"x_min":42,"x_max":1431,"o":"m 1431 88 l 1431 -256 l 42 -256 l 42 1129 l 389 1129 l 389 88 l 563 88 l 563 478 l 910 478 l 910 88 l 1431 88 z "},"G":{"ha":1653,"x_min":42,"x_max":1431,"o":"m 1431 1129 l 1431 435 q 1404 253 1431 346 q 1222 -76 1353 47 q 736 -256 1040 -256 q 251 -78 433 -256 q 69 251 121 50 q 42 435 42 369 l 42 1129 l 389 1129 l 389 435 q 475 194 389 297 q 736 88 567 88 q 994 190 904 88 q 1083 435 1083 292 l 1083 782 l 910 782 l 910 392 l 563 392 l 563 1129 l 1431 1129 z "},"H":{"ha":1653,"x_min":42,"x_max":1431,"o":"m 1431 1129 l 1431 782 l 910 782 l 910 88 l 1431 88 l 1431 -256 l 42 -256 l 42 88 l 563 88 l 563 782 l 42 782 l 42 1129 l 1431 1129 z "},"I":{"ha":1653,"x_min":42,"x_max":1431,"o":"m 1431 1129 l 1431 -256 l 1083 -256 l 1083 261 l 389 261 l 389 -256 l 42 -256 l 42 1129 l 389 1129 l 389 608 l 1083 608 l 1083 1129 l 1431 1129 z "},"J":{"ha":1653,"x_min":42,"x_max":1431,"o":"m 1431 435 q 1253 -46 1431 135 q 919 -228 1125 -174 q 736 -256 801 -256 l 693 -256 l 693 88 l 736 88 q 976 174 874 88 q 1083 435 1083 265 q 979 693 1083 603 q 736 782 878 782 l 389 782 l 389 392 l 42 392 l 42 1129 l 736 1129 q 918 1103 825 1129 q 1251 921 1126 1050 q 1431 435 1431 739 z "},"K":{"ha":1653,"x_min":42,"x_max":1431,"o":"m 1431 1129 l 1431 782 l 1257 782 q 1017 696 1119 782 q 910 435 910 604 l 910 88 l 1431 88 l 1431 -256 l 42 -256 l 42 88 l 563 88 l 563 435 q 458 693 563 603 q 215 782 357 782 l 42 782 l 42 1129 l 215 1129 q 736 913 550 1129 q 1257 1129 921 1129 l 1431 1129 z "},"L":{"ha":1653,"x_min":42,"x_max":1431,"o":"m 1431 1129 l 1431 -256 l 42 -256 l 42 88 l 1083 88 l 1083 1129 l 1431 1129 z "},"M":{"ha":1653,"x_min":42,"x_max":1431,"o":"m 1431 1129 l 1431 782 l 558 782 l 906 435 l 558 88 l 1431 88 l 1431 -256 l 42 -256 l 42 63 l 414 435 l 42 807 l 42 1129 l 1431 1129 z "},"N":{"ha":1653,"x_min":42,"x_max":1431,"o":"m 1431 1129 l 1431 806 l 613 88 l 1431 88 l 1431 -256 l 42 -256 l 42 64 l 860 782 l 42 782 l 42 1129 l 1431 1129 z "},"O":{"ha":1653,"x_min":42,"x_max":1431,"o":"m 1431 435 q 1226 -51 1431 144 q 736 -256 1024 -256 q 244 -51 449 -256 q 42 435 42 151 q 244 925 42 722 q 736 1129 449 1129 q 1226 925 1024 1129 q 1431 435 1431 722 m 1083 435 q 982 681 1083 579 q 736 782 881 782 q 490 681 592 782 q 389 435 389 579 q 490 189 389 290 q 736 88 592 88 q 982 189 881 88 q 1083 435 1083 290 z "},"P":{"ha":1653,"x_min":42,"x_max":1431,"o":"m 1431 88 l 1431 -256 l 42 -256 l 42 694 q 58 810 42 744 q 172 1017 92 936 q 475 1129 286 1129 q 778 1018 663 1129 q 892 810 858 942 q 910 694 910 750 l 910 88 l 1431 88 m 389 694 l 389 88 l 563 88 l 563 694 q 550 746 563 725 q 475 782 526 782 q 403 746 426 782 q 389 694 389 724 z "},"Q":{"ha":1653,"x_min":42,"x_max":1431,"o":"m 1431 435 q 1226 -51 1431 144 q 736 -256 1024 -256 q 244 -51 449 -256 q 42 435 42 151 q 244 925 42 722 q 736 1129 449 1129 q 1226 925 1024 1129 q 1431 435 1431 722 m 1036 261 l 693 261 l 693 608 l 1036 608 q 911 735 990 689 q 736 782 832 782 q 490 681 592 782 q 389 435 389 579 q 490 189 389 290 q 736 88 592 88 q 909 134 828 88 q 1036 261 990 181 z "},"R":{"ha":1653,"x_min":42,"x_max":1431,"o":"m 1431 1129 l 1431 782 l 1257 782 q 999 678 1088 782 q 910 435 910 576 l 910 88 l 1431 88 l 1431 -256 l 42 -256 l 42 694 q 58 810 42 744 q 172 1017 92 936 q 475 1129 286 1129 q 686 1083 596 1129 q 811 981 758 1046 q 1032 1090 900 1053 q 1257 1129 1149 1129 l 1431 1129 m 389 694 l 389 88 l 563 88 l 563 694 q 550 746 563 725 q 475 782 526 782 q 403 746 426 782 q 389 694 389 724 z "},"S":{"ha":1653,"x_min":42,"x_max":1431,"o":"m 1431 694 l 1431 -256 l 1083 -256 l 1083 694 q 1071 746 1083 725 q 996 782 1047 782 q 924 746 947 782 q 910 694 910 724 l 910 174 q 901 118 906 146 q 893 63 897 90 q 779 -142 860 -61 q 475 -256 665 -256 q 172 -144 283 -256 q 58 60 92 -64 q 50 117 54 88 q 42 174 46 146 l 42 1129 l 389 1129 l 389 175 q 401 124 389 144 q 475 88 425 88 q 549 122 526 88 q 563 174 563 144 l 563 694 q 579 810 563 744 q 693 1017 613 936 q 996 1129 807 1129 q 1299 1018 1183 1129 q 1413 810 1379 942 q 1431 694 1431 750 z "},"T":{"ha":1653,"x_min":42,"x_max":1431,"o":"m 1431 608 l 1431 261 l 389 261 l 389 -256 l 42 -256 l 42 1129 l 389 1129 l 389 608 l 1431 608 z "},"U":{"ha":1653,"x_min":42,"x_max":1431,"o":"m 1431 435 q 1253 -46 1431 135 q 919 -228 1125 -174 q 736 -256 801 -256 l 42 -256 l 42 88 l 736 88 q 976 174 874 88 q 1083 435 1083 265 q 979 693 1083 603 q 736 782 878 782 l 42 782 l 42 1129 l 736 1129 q 918 1103 825 1129 q 1251 921 1126 1050 q 1431 435 1431 739 z "},"V":{"ha":1653,"x_min":42,"x_max":1431,"o":"m 1431 44 l 1431 -256 l 42 -256 l 42 88 l 1082 88 q 863 578 1082 374 q 346 782 643 782 l 42 782 l 42 1129 l 346 1129 q 1113 811 794 1129 q 1431 44 1431 493 z "},"W":{"ha":1653,"x_min":42,"x_max":1431,"o":"m 1431 1129 l 1431 807 l 1058 435 l 1431 63 l 1431 -256 l 42 -256 l 42 88 l 914 88 l 567 435 l 914 782 l 42 782 l 42 1129 l 1431 1129 z "},"X":{"ha":1653,"x_min":42,"x_max":1431,"o":"m 1431 1129 l 1431 782 l 1257 782 q 1017 696 1119 782 q 910 435 910 604 q 1013 176 910 267 q 1257 88 1114 88 l 1431 88 l 1431 -256 l 1257 -256 q 983 -201 1129 -256 q 736 -42 838 -147 q 489 -200 638 -144 q 215 -256 349 -256 l 42 -256 l 42 88 l 215 88 q 456 174 353 88 q 563 435 563 265 q 458 693 563 603 q 215 782 357 782 l 42 782 l 42 1129 l 215 1129 q 489 1075 343 1129 q 736 915 635 1021 q 982 1074 833 1017 q 1257 1129 1122 1129 l 1431 1129 z "},"Y":{"ha":1653,"x_min":42,"x_max":1431,"o":"m 1431 608 l 1431 261 l 892 261 q 671 -97 843 32 q 369 -235 544 -194 q 215 -256 278 -256 l 42 -256 l 42 88 l 215 88 q 456 174 353 88 q 563 435 563 265 q 458 693 563 603 q 215 782 357 782 l 42 782 l 42 1129 l 215 1129 q 369 1108 278 1129 q 671 972 547 1068 q 892 608 843 838 l 1431 608 z "},"Z":{"ha":1653,"x_min":42,"x_max":1431,"o":"m 1431 1129 l 1431 -256 l 1107 -256 l 389 558 l 389 -256 l 42 -256 l 42 1129 l 365 1129 l 1083 311 l 1083 1129 l 1431 1129 z "},"[":{"ha":1653,"x_min":42,"x_max":1431,"o":"m 1431 739 l 1431 131 l 42 131 l 42 739 l 389 739 l 389 478 l 1083 478 l 1083 739 l 1431 739 z "},"\\":{"ha":1653,"x_min":42,"x_max":1431,"o":"m 1431 1031 l 1431 649 l 42 -157 l 42 221 l 1431 1031 z "},"]":{"ha":1653,"x_min":42,"x_max":1431,"o":"m 1431 739 l 1431 131 l 1083 131 l 1083 392 l 389 392 l 389 131 l 42 131 l 42 739 l 1431 739 z "},"^":{"ha":871,"x_min":42,"x_max":649,"o":"m 649 896 l 649 538 l 442 435 l 649 332 l 649 -22 l 42 278 l 42 592 l 649 896 z "},"_":{"ha":611,"x_min":42,"x_max":389,"o":"m 389 999 l 389 -125 l 42 -125 l 42 999 l 389 999 z "},"`":{"ha":742,"x_min":42,"x_max":519,"o":"m 519 608 l 519 261 l 42 261 l 42 608 l 519 608 z "},"a":{"ha":1653,"x_min":42,"x_max":1431,"o":"m 1431 694 l 1431 174 q 1422 118 1426 146 q 1414 63 1418 90 q 1300 -142 1381 -61 q 996 -256 1186 -256 q 693 -144 804 -256 q 579 60 613 -64 q 571 117 575 88 q 563 174 567 146 l 563 782 l 476 782 q 425 769 446 782 q 389 694 389 746 l 389 -256 l 42 -256 l 42 694 q 58 810 42 744 q 172 1017 92 936 q 475 1129 286 1129 l 996 1129 q 1111 1113 1046 1129 q 1318 999 1238 1079 q 1431 694 1431 883 m 1083 694 q 1047 768 1083 744 q 996 782 1025 782 l 910 782 l 910 175 q 922 124 910 144 q 996 88 946 88 q 1069 122 1047 88 q 1083 174 1083 144 l 1083 694 z "},"b":{"ha":1653,"x_min":42,"x_max":1431,"o":"m 1431 694 l 1431 174 q 1422 118 1426 146 q 1414 63 1418 90 q 1300 -142 1381 -61 q 996 -256 1186 -256 l 475 -256 q 364 -239 428 -256 q 156 -125 236 -206 q 42 174 42 -11 l 42 694 q 58 810 42 744 q 172 1017 92 936 q 475 1129 286 1129 q 736 1053 635 1129 q 996 1129 838 1129 q 1299 1018 1183 1129 q 1413 810 1379 942 q 1431 694 1431 750 m 475 88 l 563 88 l 563 694 q 550 746 563 725 q 475 782 526 782 q 403 746 426 782 q 389 694 389 724 l 389 174 q 424 101 389 122 q 475 88 446 88 m 1083 694 q 1071 746 1083 725 q 996 782 1047 782 q 924 746 947 782 q 910 694 910 724 l 910 88 l 996 88 q 1069 122 1047 88 q 1083 174 1083 144 l 1083 694 z "},"c":{"ha":1653,"x_min":42,"x_max":1431,"o":"m 1431 1129 l 1431 435 q 1404 253 1431 346 q 1222 -76 1353 47 q 736 -256 1040 -256 q 251 -78 433 -256 q 69 251 121 50 q 42 435 42 369 l 42 1129 l 389 1129 l 389 435 q 475 194 389 297 q 736 88 567 88 q 994 190 904 88 q 1083 435 1083 292 l 1083 1129 l 1431 1129 z "},"d":{"ha":1653,"x_min":42,"x_max":1431,"o":"m 1431 435 l 1431 174 q 1422 118 1426 146 q 1414 63 1418 90 q 1300 -142 1381 -61 q 996 -256 1186 -256 l 475 -256 q 364 -239 428 -256 q 156 -125 236 -206 q 42 174 42 -11 l 42 435 q 68 617 42 524 q 250 950 121 825 q 736 1129 431 1129 q 1221 951 1039 1129 q 1403 618 1349 824 q 1431 435 1431 500 m 1083 435 q 997 675 1083 572 q 736 782 906 782 q 478 678 567 782 q 389 435 389 576 l 389 174 q 425 101 389 125 q 476 88 447 88 l 996 88 q 1069 122 1047 88 q 1083 174 1083 144 l 1083 435 z "},"e":{"ha":1653,"x_min":42,"x_max":1431,"o":"m 1431 1129 l 1431 174 q 1422 118 1426 146 q 1414 63 1418 90 q 1300 -142 1381 -61 q 996 -256 1186 -256 l 475 -256 q 364 -239 428 -256 q 156 -125 236 -206 q 42 174 42 -11 l 42 694 q 58 810 42 744 q 172 1017 92 936 q 475 1129 286 1129 q 778 1018 663 1129 q 892 810 858 942 q 910 694 910 750 l 910 88 l 996 88 q 1047 100 1026 88 q 1083 174 1083 124 l 1083 1129 l 1431 1129 m 475 88 l 563 88 l 563 694 q 550 746 563 725 q 475 782 526 782 q 403 746 426 782 q 389 694 389 724 l 389 174 q 424 101 389 122 q 475 88 446 88 z "},"f":{"ha":1653,"x_min":42,"x_max":1431,"o":"m 1431 88 l 1431 -256 l 475 -256 q 364 -239 428 -256 q 156 -125 236 -206 q 42 174 42 -11 l 42 1129 l 389 1129 l 389 175 q 401 124 389 144 q 475 88 425 88 l 563 88 l 563 478 l 910 478 l 910 88 l 1431 88 z "},"g":{"ha":1653,"x_min":42,"x_max":1431,"o":"m 1431 435 q 1404 253 1431 346 q 1222 -76 1353 47 q 736 -256 1040 -256 q 251 -78 433 -256 q 69 251 121 50 q 42 435 42 369 l 42 1129 l 389 1129 l 389 435 q 492 176 389 267 q 736 88 593 88 q 976 174 874 88 q 1083 435 1083 265 q 910 739 1083 656 l 910 392 l 563 392 l 563 1129 l 736 1129 q 1221 951 1039 1129 q 1403 618 1349 824 q 1431 435 1431 500 z "},"h":{"ha":1653,"x_min":42,"x_max":1431,"o":"m 1431 1129 l 1431 782 l 1169 782 l 1169 88 l 1431 88 l 1431 -256 l 42 -256 l 42 88 l 822 88 l 822 782 l 42 782 l 42 1129 l 1431 1129 z "},"i":{"ha":1653,"x_min":42,"x_max":1431,"o":"m 1431 608 l 1431 261 l 42 261 l 42 608 l 1431 608 z "},"j":{"ha":1653,"x_min":42,"x_max":1431,"o":"m 1431 435 q 1253 -46 1431 135 q 919 -228 1125 -174 q 736 -256 801 -256 l 693 -256 l 693 88 l 736 88 q 976 174 874 88 q 1083 435 1083 265 q 979 693 1083 603 q 736 782 878 782 l 42 782 l 42 1129 l 736 1129 q 918 1103 825 1129 q 1251 921 1126 1050 q 1431 435 1431 739 z "},"k":{"ha":1653,"x_min":42,"x_max":1431,"o":"m 1431 1129 l 1431 782 l 1257 782 q 1017 696 1119 782 q 910 435 910 604 l 910 88 l 1431 88 l 1431 -256 l 42 -256 l 42 88 l 563 88 l 563 279 q 200 500 335 326 q 63 801 103 626 q 42 956 42 893 l 42 1129 l 389 1129 l 389 956 q 453 739 389 819 q 594 638 507 672 q 637 754 613 700 q 692 854 661 808 q 899 1046 774 978 q 1257 1129 1050 1129 l 1431 1129 z "},"l":{"ha":1653,"x_min":42,"x_max":1431,"o":"m 1431 1129 l 1431 174 q 1319 -125 1431 -10 q 1111 -239 1239 -206 q 996 -256 1046 -256 l 42 -256 l 42 88 l 996 88 q 1069 122 1047 88 q 1083 174 1083 144 l 1083 1129 l 1431 1129 z "},"m":{"ha":1653,"x_min":42,"x_max":1431,"o":"m 1431 1129 l 1431 782 l 475 782 q 425 769 443 782 q 389 694 389 746 q 424 622 389 643 q 475 608 446 608 l 1431 608 l 1431 261 l 476 261 q 425 249 446 261 q 389 174 389 225 q 424 101 389 122 q 475 88 446 88 l 1431 88 l 1431 -256 l 475 -256 q 364 -239 428 -256 q 156 -125 236 -206 q 42 174 42 -11 q 118 435 42 333 q 42 694 42 536 q 153 997 42 886 q 361 1111 229 1078 q 475 1129 421 1129 l 1431 1129 z "},"n":{"ha":1653,"x_min":42,"x_max":1431,"o":"m 1431 1129 l 1431 782 l 736 782 q 496 696 599 782 q 389 435 389 604 q 492 176 389 267 q 736 88 593 88 l 1431 88 l 1431 -256 l 736 -256 q 554 -229 647 -256 q 221 -47 346 -176 q 42 435 42 128 q 219 919 42 738 q 553 1101 347 1047 q 736 1129 671 1129 l 1431 1129 z "},"o":{"ha":1653,"x_min":42,"x_max":1431,"o":"m 1431 435 q 1226 -51 1431 144 q 736 -256 1024 -256 q 244 -51 449 -256 q 42 435 42 151 q 244 925 42 722 q 736 1129 449 1129 q 1226 925 1024 1129 q 1431 435 1431 722 m 1083 435 q 982 681 1083 579 q 736 782 881 782 q 490 681 592 782 q 389 435 389 579 q 490 189 389 290 q 736 88 592 88 q 982 189 881 88 q 1083 435 1083 290 z "},"p":{"ha":1653,"x_min":42,"x_max":1431,"o":"m 1431 88 l 1431 -256 l 475 -256 q 364 -239 428 -256 q 156 -125 236 -206 q 42 174 42 -11 l 42 694 q 58 810 42 744 q 172 1017 92 936 q 475 1129 286 1129 q 778 1018 663 1129 q 892 810 858 942 q 910 694 910 750 l 910 88 l 1431 88 m 475 88 l 563 88 l 563 694 q 550 746 563 725 q 475 782 526 782 q 403 746 426 782 q 389 694 389 724 l 389 174 q 424 101 389 122 q 475 88 446 88 z "},"q":{"ha":1653,"x_min":42,"x_max":1431,"o":"m 1431 435 q 1226 -51 1431 144 q 736 -256 1024 -256 q 244 -51 449 -256 q 42 435 42 151 q 244 925 42 722 q 736 1129 449 1129 q 1226 925 1024 1129 q 1431 435 1431 722 m 1083 435 q 1071 524 1083 479 l 828 282 l 583 526 l 825 769 q 736 782 781 782 q 490 681 592 782 q 389 435 389 579 q 490 189 389 290 q 736 88 592 88 q 982 189 881 88 q 1083 435 1083 290 z "},"r":{"ha":1653,"x_min":42,"x_max":1431,"o":"m 1431 1129 l 1431 782 l 1257 782 q 999 678 1088 782 q 910 435 910 576 l 910 88 l 1431 88 l 1431 -256 l 475 -256 q 364 -239 428 -256 q 156 -125 236 -206 q 42 174 42 -11 l 42 694 q 58 810 42 744 q 172 1017 92 936 q 475 1129 286 1129 q 686 1083 596 1129 q 811 981 758 1046 q 1032 1090 900 1053 q 1257 1129 1149 1129 l 1431 1129 m 475 88 l 563 88 l 563 694 q 550 746 563 725 q 475 782 526 782 q 403 746 426 782 q 389 694 389 724 l 389 174 q 424 101 389 122 q 475 88 446 88 z "},"s":{"ha":1653,"x_min":42,"x_max":1431,"o":"m 1431 694 l 1431 -256 l 1083 -256 l 1083 694 q 1071 746 1083 725 q 996 782 1047 782 q 924 746 947 782 q 910 694 910 724 l 910 174 q 901 118 906 146 q 893 63 897 90 q 779 -142 860 -61 q 475 -256 665 -256 q 172 -144 283 -256 q 58 60 92 -64 q 50 117 54 88 q 42 174 46 146 l 42 1129 l 389 1129 l 389 175 q 401 124 389 144 q 475 88 425 88 q 549 122 526 88 q 563 174 563 144 l 563 694 q 579 810 563 744 q 693 1017 613 936 q 996 1129 807 1129 q 1299 1018 1183 1129 q 1413 810 1379 942 q 1431 694 1431 750 z "},"t":{"ha":1653,"x_min":42,"x_max":1431,"o":"m 1431 608 l 1431 261 l 389 261 l 389 -256 l 42 -256 l 42 1129 l 389 1129 l 389 608 l 1431 608 z "},"u":{"ha":1653,"x_min":42,"x_max":1431,"o":"m 1431 435 q 1253 -46 1431 135 q 919 -228 1125 -174 q 736 -256 801 -256 l 42 -256 l 42 88 l 736 88 q 976 174 874 88 q 1083 435 1083 265 q 979 693 1083 603 q 736 782 878 782 l 42 782 l 42 1129 l 736 1129 q 918 1103 825 1129 q 1251 921 1126 1050 q 1431 435 1431 739 z "},"v":{"ha":1653,"x_min":42,"x_max":1431,"o":"m 1431 435 l 1431 -256 l 42 -256 l 42 88 l 1083 88 l 1083 435 q 979 693 1083 603 q 736 782 878 782 l 42 782 l 42 1129 l 736 1129 q 1221 951 1039 1129 q 1403 618 1349 824 q 1431 435 1431 500 z "},"w":{"ha":1653,"x_min":42,"x_max":1431,"o":"m 1431 694 q 1354 435 1431 536 q 1431 174 1431 333 q 1319 -125 1431 -10 q 1111 -239 1239 -206 q 996 -256 1046 -256 l 42 -256 l 42 88 l 996 88 q 1047 100 1026 88 q 1083 174 1083 124 q 1047 247 1083 224 q 996 261 1025 261 l 42 261 l 42 608 l 996 608 q 1047 621 1026 608 q 1083 694 1083 644 q 1047 768 1083 744 q 996 782 1025 782 l 42 782 l 42 1129 l 996 1129 q 1111 1113 1046 1129 q 1318 999 1238 1079 q 1431 694 1431 883 z "},"x":{"ha":1653,"x_min":42,"x_max":1431,"o":"m 1431 1129 l 1431 956 q 1376 682 1431 828 q 1217 435 1322 536 q 1375 188 1319 336 q 1431 -82 1431 47 l 1431 -256 l 1083 -256 l 1083 -82 q 997 154 1083 51 q 736 261 906 261 q 478 157 567 261 q 389 -82 389 56 l 389 -256 l 42 -256 l 42 -82 q 96 188 42 42 q 256 435 150 333 q 97 681 153 532 q 42 956 42 821 l 42 1129 l 389 1129 l 389 956 q 475 715 389 818 q 736 608 567 608 q 994 711 904 608 q 1083 956 1083 813 l 1083 1129 l 1431 1129 z "},"y":{"ha":1653,"x_min":42,"x_max":1431,"o":"m 1431 694 l 1431 -256 l 1083 -256 l 1083 694 q 1071 746 1083 725 q 996 782 1047 782 l 910 782 l 910 174 q 901 118 906 146 q 893 63 897 90 q 779 -142 860 -61 q 475 -256 665 -256 l 42 -256 l 42 88 l 475 88 q 526 100 506 88 q 563 174 563 124 l 563 782 l 42 782 l 42 1129 l 996 1129 q 1111 1113 1046 1129 q 1318 999 1238 1079 q 1431 694 1431 883 z "},"z":{"ha":1653,"x_min":42,"x_max":1431,"o":"m 1431 1129 l 1431 -256 l 1107 -256 l 389 558 l 389 -256 l 42 -256 l 42 1129 l 365 1129 l 1083 311 l 1083 1129 l 1431 1129 z "},"{":{"ha":1653,"x_min":42,"x_max":1431,"o":"m 1431 739 l 1431 694 q 1422 639 1426 667 q 1414 583 1418 611 q 1300 375 1381 456 q 997 261 1186 261 q 946 249 967 261 q 910 174 910 225 l 910 131 l 563 131 l 563 174 q 526 247 563 224 q 475 261 504 261 q 172 372 283 261 q 58 581 92 453 q 50 638 54 608 q 42 694 46 667 l 42 739 l 389 738 l 389 696 q 401 644 389 665 q 476 608 425 608 q 606 588 535 608 q 736 528 676 568 q 799 562 765 547 q 868 587 833 576 q 935 603 903 597 q 996 608 968 608 q 1069 644 1046 608 q 1083 696 1083 667 l 1083 739 l 1431 739 z "},"|":{"ha":1914,"x_min":42,"x_max":1692,"o":"m 1692 608 l 1692 261 l 42 261 l 42 608 l 1692 608 z "},"}":{"ha":1653,"x_min":42,"x_max":1431,"o":"m 1431 174 l 1431 131 l 1083 132 l 1083 174 q 1071 225 1083 204 q 996 261 1047 261 q 867 281 938 261 q 736 342 796 301 q 673 308 707 322 q 604 283 639 293 q 536 267 569 272 q 475 261 503 261 q 403 225 426 261 q 389 174 389 203 l 389 131 l 42 131 l 42 174 q 58 289 42 224 q 172 496 92 415 q 475 608 286 608 q 526 621 506 608 q 563 694 563 644 l 563 739 l 910 739 l 910 694 q 946 622 910 646 q 997 608 968 608 q 1300 497 1185 608 q 1414 289 1381 417 q 1431 174 1431 224 z "},"~":{"ha":1132,"x_min":42,"x_max":910,"o":"m 910 694 q 799 392 910 503 q 590 278 718 311 q 476 261 525 261 q 425 249 446 261 q 389 174 389 225 q 425 101 389 125 q 476 88 447 88 l 650 88 l 650 -256 l 476 -256 q 364 -239 428 -256 q 154 -125 235 -206 q 42 174 42 -12 q 154 476 42 364 q 364 590 233 557 q 476 608 424 608 q 526 621 506 608 q 563 694 563 644 q 528 768 563 746 q 476 782 506 782 l 303 782 l 303 1129 l 476 1129 q 588 1113 522 1129 q 796 999 715 1079 q 910 694 910 885 z "},"Æ":{"ha":1472,"x_min":42,"x_max":1431,"o":"m 1431 1129 l 1431 261 l 910 261 l 910 88 l 1431 88 l 1431 -256 l 475 -256 q 364 -239 428 -256 q 156 -125 236 -206 q 42 174 42 -11 l 42 1129 l 389 1129 l 389 608 l 563 608 l 563 868 l 910 868 l 910 608 l 1083 608 l 1083 1129 l 1431 1129 m 475 88 l 563 88 l 563 261 l 389 261 l 389 174 q 424 101 389 122 q 475 88 446 88 z "},"È":{"ha":1472,"x_min":42,"x_max":1431,"o":"m 1431 1129 l 1431 782 l 910 782 l 910 88 l 1431 88 l 1431 -256 l 736 -256 q 554 -229 647 -256 q 221 -47 346 -176 q 42 435 42 128 q 219 919 42 738 q 553 1101 347 1047 q 736 1129 671 1129 l 1431 1129 m 563 131 l 563 739 q 389 435 389 656 q 563 131 389 214 z "},"É":{"ha":1472,"x_min":42,"x_max":1431,"o":"m 1431 1129 l 1431 174 q 1422 118 1426 146 q 1414 63 1418 90 q 1300 -142 1381 -61 q 996 -256 1186 -256 q 693 -144 804 -256 q 579 60 613 -64 q 571 117 575 88 q 563 174 567 146 l 563 782 l 476 782 q 425 769 446 782 q 389 694 389 746 l 389 -256 l 42 -256 l 42 694 q 58 810 42 744 q 172 1017 92 936 q 475 1129 286 1129 l 1431 1129 m 1083 174 l 1083 782 l 910 782 l 910 175 q 922 124 910 144 q 996 88 946 88 q 1069 122 1047 88 q 1083 174 1083 144 z "},"Ê":{"ha":1472,"x_min":42,"x_max":1431,"o":"m 1431 1129 l 1431 174 q 1422 118 1426 146 q 1414 63 1418 90 q 1300 -142 1381 -61 q 996 -256 1186 -256 q 736 -179 838 -256 q 475 -256 635 -256 q 172 -144 283 -256 q 58 60 92 -64 q 50 117 54 88 q 42 174 46 146 l 42 1129 l 389 1129 l 389 175 q 401 124 389 144 q 475 88 425 88 q 549 122 526 88 q 563 174 563 144 l 563 478 l 910 478 l 910 175 q 922 124 910 144 q 996 88 946 88 q 1069 122 1047 88 q 1083 174 1083 144 l 1083 1129 l 1431 1129 z "},"Ë":{"ha":1472,"x_min":42,"x_max":1431,"o":"m 1431 1129 l 1431 174 q 1319 -125 1431 -10 q 1111 -239 1239 -206 q 996 -256 1046 -256 l 475 -256 q 172 -144 283 -256 q 58 60 92 -64 q 50 117 54 88 q 42 174 46 146 l 42 1129 l 389 1129 l 389 174 q 424 101 389 122 q 475 88 446 88 l 563 88 l 563 478 l 910 478 l 910 88 l 996 88 q 1069 122 1047 88 q 1083 174 1083 144 l 1083 1129 l 1431 1129 z "},"Ì":{"ha":1472,"x_min":42,"x_max":1431,"o":"m 1431 88 l 1431 -256 l 42 -256 l 42 1129 l 389 1129 l 389 88 l 822 88 l 822 478 l 1169 478 l 1169 88 l 1431 88 z "},"Í":{"ha":1472,"x_min":42,"x_max":1431,"o":"m 1431 88 l 1431 -256 l 736 -256 q 554 -229 647 -256 q 221 -47 346 -176 q 42 435 42 128 l 42 1129 l 389 1129 l 389 435 q 475 194 389 297 q 736 88 567 88 l 822 88 l 822 478 l 1169 478 l 1169 88 l 1431 88 z "},"Î":{"ha":1472,"x_min":42,"x_max":1431,"o":"m 1431 88 l 1431 -256 l 475 -256 q 364 -239 428 -256 q 156 -125 236 -206 q 42 174 42 -11 l 42 1129 l 389 1129 l 389 175 q 401 124 389 144 q 475 88 425 88 l 822 88 l 822 478 l 1169 478 l 1169 88 l 1431 88 z "},"Ï":{"ha":1472,"x_min":42,"x_max":1431,"o":"m 1431 1129 l 1431 782 l 476 782 q 425 769 446 782 q 389 694 389 746 l 389 608 l 1431 608 l 1431 261 l 389 261 l 389 175 q 401 124 389 144 q 475 88 425 88 l 1431 88 l 1431 -256 l 475 -256 q 364 -239 428 -256 q 156 -125 236 -206 q 42 174 42 -11 l 42 694 q 58 810 42 744 q 172 1017 92 936 q 475 1129 286 1129 l 1431 1129 z "},"Ð":{"ha":1472,"x_min":42,"x_max":1431,"o":"m 1431 1129 l 1431 782 l 736 782 q 558 738 656 782 q 426 608 469 693 l 1431 608 l 1431 261 l 426 261 q 558 132 469 176 q 736 88 656 88 l 1431 88 l 1431 -256 l 736 -256 q 554 -229 647 -256 q 221 -47 346 -176 q 42 435 42 128 q 219 919 42 738 q 553 1101 347 1047 q 736 1129 671 1129 l 1431 1129 z "},"Ñ":{"ha":1472,"x_min":42,"x_max":1431,"o":"m 1431 694 l 1431 174 q 1319 -125 1431 -10 q 1111 -239 1239 -206 q 996 -256 1046 -256 l 42 -256 l 42 88 l 996 88 q 1069 122 1047 88 q 1083 174 1083 144 l 1083 261 l 42 261 l 42 608 l 1083 608 l 1083 694 q 1047 768 1083 744 q 996 782 1025 782 l 42 782 l 42 1129 l 996 1129 q 1299 1018 1183 1129 q 1413 810 1379 942 q 1431 694 1431 750 z "},"Ò":{"ha":1472,"x_min":42,"x_max":1431,"o":"m 1431 435 q 1253 -46 1431 135 q 919 -228 1125 -174 q 736 -256 801 -256 l 42 -256 l 42 88 l 736 88 q 914 132 817 88 q 1046 261 1003 176 l 42 261 l 42 608 l 1046 608 q 913 736 1003 692 q 736 782 822 782 l 42 782 l 42 1129 l 736 1129 q 918 1103 825 1129 q 1251 921 1126 1050 q 1431 435 1431 739 z "},"Ó":{"ha":1472,"x_min":42,"x_max":1431,"o":"m 1431 608 l 1431 261 l 910 261 l 910 174 q 799 -125 910 -10 q 590 -239 718 -206 q 475 -256 525 -256 l 42 -256 l 42 88 l 475 88 q 549 122 526 88 q 563 174 563 144 l 563 694 q 526 768 563 744 q 475 782 504 782 l 42 782 l 42 1129 l 475 1129 q 778 1018 663 1129 q 892 810 858 942 q 910 694 910 750 l 910 608 l 1431 608 z "},"Ô":{"ha":1472,"x_min":42,"x_max":1431,"o":"m 1431 435 q 1226 -51 1431 144 q 736 -256 1024 -256 q 244 -51 449 -256 q 42 435 42 151 q 244 925 42 722 q 736 1129 449 1129 q 1226 925 1024 1129 q 1431 435 1431 722 m 736 782 q 647 769 690 782 l 1071 346 q 1083 435 1083 389 q 982 681 1083 579 q 736 782 881 782 m 736 88 q 825 100 781 88 l 401 524 q 389 435 389 479 q 490 189 389 290 q 736 88 592 88 z "},"æ":{"ha":1472,"x_min":42,"x_max":1431,"o":"m 1431 1129 l 1431 694 q 1422 639 1426 667 q 1414 583 1418 611 q 1300 375 1381 456 q 996 261 1186 261 l 910 261 l 910 88 l 1431 88 l 1431 -256 l 475 -256 q 364 -239 428 -256 q 156 -125 236 -206 q 42 174 42 -11 q 119 438 42 331 q 62 567 82 496 q 42 694 42 639 l 42 1129 l 389 1129 l 389 694 q 424 622 389 643 q 475 608 446 608 l 563 608 l 563 868 l 910 868 l 910 608 l 996 608 q 1047 621 1026 608 q 1083 694 1083 644 l 1083 1129 l 1431 1129 m 475 88 l 563 88 l 563 261 l 476 261 q 425 249 446 261 q 389 174 389 225 q 424 101 389 122 q 475 88 446 88 z "}}}
